<svg width="29" height="29" viewBox="0 0 29 29" fill="none" xmlns="http://www.w3.org/2000/svg">
<path d="M22.3079 10.8044C21.5793 8.78546 20.2992 7.25504 18.4614 6.18423L18.3619 6.1325L19.4215 4.03058C19.5039 4.05585 19.5912 4.07028 19.6821 4.07028C20.161 4.07028 20.5489 3.68527 20.5489 3.21003C20.5489 2.73478 20.161 2.34977 19.6821 2.34977C19.2033 2.34977 18.8153 2.73478 18.8153 3.21003C18.8153 3.47111 18.9329 3.70332 19.1172 3.86214L18.054 5.97248L17.9328 5.90991C16.7921 5.37812 15.6392 5.09899 14.4681 5.06289V5.05687H13.9226V5.06289C13.2583 5.08575 12.5879 5.18441 11.909 5.36248L11.7502 5.41181L10.6107 1.96957C10.9659 1.80474 11.212 1.4474 11.212 1.03351C11.212 0.463216 10.744 0 10.1706 0C9.59721 0 9.12927 0.464419 9.12927 1.03351C9.12927 1.60261 9.59721 2.06703 10.1706 2.06703C10.2058 2.06703 10.2397 2.06462 10.2737 2.06221L11.4168 5.51528L11.3392 5.53934C9.32809 6.26725 7.7982 7.5426 6.72776 9.3714L6.65018 9.52781L3.84134 7.6966C3.89468 7.60877 3.93347 7.51011 3.95166 7.40303C4.03409 6.935 3.71769 6.48863 3.24611 6.40682C2.77454 6.325 2.32478 6.63903 2.24235 7.10706C2.15992 7.57508 2.47632 8.02146 2.94789 8.10327C3.18671 8.14418 3.41826 8.08522 3.60131 7.95528L6.49379 9.84184L6.37863 10.0752C5.8428 11.2363 5.59065 12.4587 5.61368 13.7353C5.62702 14.4427 5.7337 15.1381 5.91554 15.8095L5.95554 15.9406L3.11761 16.92C2.88243 16.3678 2.34782 15.9671 1.70531 15.9346C0.816717 15.8901 0.0481357 16.5747 0.00206933 17.4614C-0.0427848 18.3482 0.646999 19.1062 1.54044 19.1519C1.56833 19.1531 1.59621 19.1543 1.62288 19.1543C2.47996 19.1543 3.19883 18.4841 3.24248 17.6251C3.24854 17.4975 3.23884 17.3736 3.21581 17.2521L6.05616 16.2715L6.09738 16.4039C6.82353 18.3831 8.10127 19.9002 9.93059 20.965L10.007 21.0047L8.84924 23.3028C8.7668 23.2823 8.68195 23.2703 8.59345 23.2703C8.01883 23.2703 7.55211 23.7347 7.55211 24.3038C7.55211 24.8729 8.02004 25.3373 8.59345 25.3373C9.16686 25.3373 9.63479 24.8729 9.63479 24.3038C9.63479 23.9453 9.44931 23.6276 9.16807 23.4423L10.3161 21.1648L10.4688 21.2442C11.5975 21.7712 12.7479 22.0479 13.9214 22.0828V22.0876H14.1323C14.1432 22.0876 14.1554 22.0876 14.1663 22.0876H14.4669V22.0816C15.0718 22.0599 15.6828 21.9745 16.2999 21.8253L17.6273 25.7368C17.0818 25.9966 16.7023 26.5489 16.7023 27.189C16.7023 28.0769 17.4309 28.8 18.3256 28.8C19.2202 28.8 19.9488 28.0769 19.9488 27.189C19.9488 26.301 19.2202 25.5779 18.3256 25.5779C18.1983 25.5779 18.0746 25.5936 17.9558 25.6213L16.6357 21.7302L16.9812 21.6256C18.9996 20.9085 20.5368 19.6488 21.623 17.8284L21.9018 17.305C22.8255 15.3812 23.0086 13.4008 22.4764 11.3506L22.3067 10.8032L22.3079 10.8044ZM9.47598 1.03351C9.47598 0.654518 9.78633 0.34651 10.1682 0.34651C10.5501 0.34651 10.8604 0.654518 10.8604 1.03351C10.8604 1.41251 10.5501 1.72052 10.1682 1.72052C9.78633 1.72052 9.47598 1.41251 9.47598 1.03351ZM2.89455 17.607C2.87758 17.9439 2.72847 18.2543 2.47632 18.4805C2.22417 18.7067 1.89928 18.8246 1.55742 18.8054C1.21798 18.7885 0.905213 18.6405 0.677306 18.3903C0.449398 18.14 0.33302 17.8164 0.349992 17.4783C0.366964 17.1414 0.516073 16.831 0.768226 16.6048C1.00462 16.393 1.30526 16.2787 1.62045 16.2787C1.64227 16.2787 1.6641 16.2787 1.68592 16.2799C2.02535 16.2968 2.33812 16.4448 2.56603 16.695C2.79393 16.9453 2.91031 17.2689 2.89334 17.607H2.89455ZM8.59345 24.992C8.21158 24.992 7.90124 24.684 7.90124 24.305C7.90124 23.926 8.21158 23.618 8.59345 23.618C8.97532 23.618 9.28566 23.926 9.28566 24.305C9.28566 24.684 8.97532 24.992 8.59345 24.992ZM19.5997 27.1902C19.5997 27.8868 19.0287 28.4547 18.3256 28.4547C17.6225 28.4547 17.0515 27.888 17.0515 27.1902C17.0515 26.4923 17.6225 25.9257 18.3256 25.9257C19.0287 25.9257 19.5997 26.4923 19.5997 27.1902ZM13.7941 14.539C13.6001 14.6364 13.4353 14.7916 13.3189 14.9914C13.1649 15.2573 13.0486 15.5737 12.9746 15.9334C12.9031 16.2787 12.8449 16.6301 12.7879 16.9705C12.7285 17.3231 12.6679 17.6888 12.594 18.0414C12.3042 19.6656 11.3756 18.0065 11.4532 16.9898C11.6823 14.0252 10.7768 11.8776 10.7768 11.8776C10.7149 11.6971 10.6834 11.4998 10.6507 11.2892C10.6361 11.1942 10.6216 11.1003 10.6034 11.0065C10.6034 10.3809 10.8919 9.83702 11.3756 9.54706C11.8423 9.26793 12.4097 9.27034 12.9334 9.55308C13.1795 9.68663 13.4207 9.78047 13.6608 9.83943C13.6765 9.84304 13.6911 9.84665 13.708 9.85026C13.7214 9.85266 13.7335 9.85507 13.7468 9.85748C13.942 9.89357 14.1917 9.91402 14.4669 9.86951C14.6075 9.84184 14.7469 9.80213 14.8876 9.7504C14.8912 9.74919 14.8961 9.74799 14.8997 9.74558C15.0391 9.69385 15.1809 9.63008 15.3228 9.55308C15.8465 9.27034 16.4138 9.26793 16.8805 9.54706C17.3655 9.83582 17.6528 10.3809 17.6528 11.0065C17.6346 11.1003 17.62 11.1942 17.6055 11.288C17.5728 11.4974 17.5412 11.6959 17.4794 11.8764C16.8478 13.6992 16.5096 15.226 16.4175 16.6806C16.3932 17.056 16.2053 17.4554 16.0247 17.8428C15.981 17.9355 15.9386 18.0269 15.895 18.1208C15.8622 18.1581 15.8186 18.1605 15.7883 18.1557C15.7689 18.152 15.7034 18.1376 15.6743 18.069C15.6695 18.0582 15.6659 18.0474 15.6646 18.039C15.5907 17.6864 15.5289 17.3207 15.4707 16.9681C15.4137 16.6276 15.3543 16.2763 15.284 15.931C15.21 15.5713 15.0949 15.2548 14.9397 14.9889C14.8245 14.7904 14.6609 14.6352 14.4693 14.5366H13.7977L13.7941 14.539ZM21.2326 17.3219C20.2119 19.2156 18.5159 20.5295 16.5945 21.1299C15.5398 21.4595 14.4669 20.6799 14.4669 19.5838V16.0658C14.4669 15.9118 14.6924 15.8865 14.7239 16.0369C14.7239 16.0393 14.7239 16.0429 14.7251 16.0453C14.7942 16.381 14.8524 16.7275 14.9082 17.0632C14.9688 17.4217 15.0306 17.7923 15.107 18.1557C15.1167 18.2002 15.1312 18.2459 15.1494 18.2904C15.2452 18.5166 15.4501 18.6754 15.6974 18.7139C15.735 18.7199 15.7725 18.7223 15.8101 18.7223C16.0065 18.7223 16.1932 18.6405 16.3229 18.4913C16.3617 18.4468 16.3932 18.3987 16.415 18.3482C16.455 18.2591 16.4963 18.1713 16.5387 18.0811C16.7423 17.6467 16.9533 17.1979 16.9836 16.7167C17.0733 15.3138 17.4018 13.8351 18.0164 12.0605C18.0952 11.8331 18.1316 11.6009 18.1668 11.3759C18.1813 11.2796 18.1971 11.1834 18.2153 11.0883L18.2201 11.0378C18.2298 10.2004 17.8382 9.46284 17.1727 9.0658C16.529 8.68199 15.7556 8.67958 15.0512 9.05978C15.0488 9.05978 15.0476 9.06219 15.0452 9.06339C14.7833 9.20416 14.4657 9.00805 14.4657 8.71207V7.54019C14.4657 6.44171 15.5434 5.66206 16.5981 5.99534C17.06 6.14092 17.5158 6.33102 17.9595 6.56684C21.8594 8.63868 23.3214 13.4441 21.2326 17.3219Z" fill="white"/>
</svg>


